<svg width="136" height="136" xmlns="http://www.w3.org/2000/svg" xmlns:xlink="http://www.w3.org/1999/xlink" xml:space="preserve" overflow="hidden"><defs><clipPath id="clip0"><path d="M771.088 379.882 838.97 312 906.852 379.882 838.97 447.764Z" fill-rule="evenodd" clip-rule="evenodd"/></clipPath><clipPath id="clip1"><path d="M771.088 379.882 838.97 312 906.852 379.882 838.97 447.764Z" fill-rule="evenodd" clip-rule="evenodd"/></clipPath><clipPath id="clip2"><path d="M771.088 379.882 838.97 312 906.852 379.882 838.97 447.764Z" fill-rule="evenodd" clip-rule="evenodd"/></clipPath></defs><g transform="translate(-771 -312)"><g clip-path="url(#clip0)"><g clip-path="url(#clip1)"><g clip-path="url(#clip2)"><path d="M822.706 407.459C815.918 401.095 810.12 394.873 807.857 385.539 805.312 375.074 806.797 363.972 813.514 355.416 820.232 346.86 829.919 341.133 840.596 339.224 849.93 337.809 861.668 340.355 868.527 347.214 862.446 342.83 854.809 341.133 847.384 342.618 840.031 344.173 833.596 348.628 829.778 355.133 826.03 361.144 825.747 368.922 827.232 375.781 828.717 382.64 833.454 387.095 838.263 391.903L847.455 382.711 847.455 416.652C847.455 416.652 819.312 416.652 813.514 416.652L822.706 407.459Z"/></g></g></g></g></svg>