<svg width="137" height="137" xmlns="http://www.w3.org/2000/svg" xmlns:xlink="http://www.w3.org/1999/xlink" xml:space="preserve" overflow="hidden"><defs><clipPath id="clip0"><path d="M989.23 381.704 921.348 313.822 853.466 381.704 921.348 449.587Z" fill-rule="evenodd" clip-rule="evenodd"/></clipPath><clipPath id="clip1"><path d="M989.23 381.704 921.348 313.822 853.466 381.704 921.348 449.587Z" fill-rule="evenodd" clip-rule="evenodd"/></clipPath><clipPath id="clip2"><path d="M989.23 381.704 921.348 313.822 853.466 381.704 921.348 449.587Z" fill-rule="evenodd" clip-rule="evenodd"/></clipPath></defs><g transform="translate(-853 -313)"><g clip-path="url(#clip0)"><g clip-path="url(#clip1)"><g clip-path="url(#clip2)"><path d="M17 56C16.7 46.7 17 38.2 22 30 27.6 20.8 36.5 14 47.3 12.7 58.1 11.4 69 14.2 77.9 20.4 85.5 26 92 36.1 92 45.8 90.8 38.4 86.6 31.8 80.3 27.6 74 23.5 66.3 22.1 59 24 52.1 25.6 46.4 30.9 42.6 36.8 38.8 42.7 39 49.2 39 56L52 56 28 80C28 80 8.1 60.1 4 56L17 56Z" transform="matrix(-0.707107 -0.707107 -0.707107 0.707107 989.23 381.704)"/></g></g></g></g></svg>