<svg width="124" height="124" xmlns="http://www.w3.org/2000/svg" xmlns:xlink="http://www.w3.org/1999/xlink" xml:space="preserve" overflow="hidden"><defs><clipPath id="clip0"><path d="M319.741 293.649 410.003 260.958 442.694 351.221 352.431 383.911Z" fill-rule="evenodd" clip-rule="evenodd"/></clipPath><clipPath id="clip1"><path d="M319.741 293.649 410.003 260.958 442.694 351.221 352.431 383.911Z" fill-rule="evenodd" clip-rule="evenodd"/></clipPath><clipPath id="clip2"><path d="M319.741 293.649 410.003 260.958 442.694 351.221 352.431 383.911Z" fill-rule="evenodd" clip-rule="evenodd"/></clipPath></defs><g transform="translate(-319 -260)"><g clip-path="url(#clip0)"><g clip-path="url(#clip1)"><g clip-path="url(#clip2)"><path d="M367.458 351.986C370.02 353.186 371.075 356.101 369.876 358.662L362.837 364.189 360.916 363.29 360.654 354.344C361.982 351.843 364.897 350.787 367.458 351.986ZM386.634 289.523 356.683 353.656 357.229 373.665 373.042 361.238 403.028 297.2"/><path d="M406.964 279.289 397.87 275.031C395.821 274.071 393.471 274.923 392.511 276.972L388.313 285.937 404.579 293.554 408.777 284.588C409.864 282.599 409.013 280.248 406.964 279.289Z"/></g></g></g></g></svg>