<svg width="96" height="96" xmlns="http://www.w3.org/2000/svg" xmlns:xlink="http://www.w3.org/1999/xlink" xml:space="preserve" overflow="hidden"><g transform="translate(-272 -469)"><path d="M291.5 500.9 293.2 488.9 297.1 494.1 300.3 491.7 292.3 481 281.7 489 284.1 492.2 289.3 488.3 287.5 500.3 286.6 507.1 284.8 519.1 281 514 277.8 516.4 285.7 527 296.4 519 294 515.8 288.8 519.7 290.5 507.7Z"/><path d="M360.1 539.2C357.5 533.4 363.9 529.9 358.9 518.9 357.7 516.3 353.8 507.6 352.2 504.1 351 501.4 347.8 500.1 345 501.4 343.8 501.9 342.9 502.8 342.3 504 342.3 504.1 342.2 504.1 342.1 504 341.9 503.5 341.7 503.1 341.3 502.7 340.3 501.4 338.8 500.6 337.2 500.6 334.9 500.5 332.9 501.9 332 503.9 332 504 331.9 504 331.8 503.9 330 501.6 326.7 501.2 324.3 503 322.9 504 322.1 506 322.5 508 322.5 508.1 322.4 508.1 322.4 508L313.8 488.8C312.8 486.5 310.1 485.3 307.8 486.3 305.5 487.3 304.3 490 305.3 492.3 305.3 492.4 305.4 492.4 305.4 492.5L322.7 531.2 320 531.8 307.8 523.4C305.8 522 303 522.3 301.5 524.1 299.7 526.2 300.2 529.4 302.4 530.9L321.4 543.9C321.9 544.2 322.4 544.5 323 544.6L334.9 547.4 335.3 547.9 338.1 554.1 362 543.3 360.1 539.2Z"/></g></svg>