<svg width="96" height="96" xmlns="http://www.w3.org/2000/svg" xmlns:xlink="http://www.w3.org/1999/xlink" xml:space="preserve" overflow="hidden"><g transform="translate(-240 -143)"><path d="M252 174 246 174 246 160 260 160 260 166 252 166 252 174Z"/><path d="M330 174 324 174 324 166 316 166 316 160 330 160 330 174Z"/><path d="M260 222 246 222 246 208 252 208 252 216 260 216 260 222Z"/><path d="M330 222 316 222 316 216 324 216 324 208 330 208 330 222Z"/><path d="M310.482 183C304.827 178.083 296.84 173 287.973 173 279.106 173 271.108 178.083 265.461 183L246 183 246 187 330 187 330 183ZM279.082 183C283.442 178.092 290.955 177.647 295.863 182.006 296.214 182.318 296.546 182.65 296.857 183Z"/><path d="M280.237 191C280.237 195.101 283.561 198.425 287.662 198.425 291.763 198.425 295.087 195.101 295.087 191 295.083 190.665 295.056 190.331 295.007 190L280.317 190C280.268 190.331 280.241 190.665 280.237 191Z"/><path d="M310.909 190C311.546 190.645 312.129 191.261 312.636 191.828 308.51 195.935 303.708 199.301 298.441 201.78 298.436 201.781 298.43 201.778 298.429 201.772 298.428 201.77 298.429 201.766 298.431 201.764 301.583 198.694 303.216 194.388 302.891 190L299.919 190C299.949 190.33 299.966 190.664 299.966 191 299.966 197.627 294.593 203 287.966 203 281.339 203 275.966 197.627 275.966 191 275.966 190.664 275.984 190.33 276.014 190L273.034 190C272.708 194.39 274.346 198.699 277.505 201.764 277.508 201.768 277.508 201.775 277.503 201.778 277.501 201.78 277.498 201.781 277.495 201.78 272.217 199.319 267.413 195.951 263.3 191.828 263.863 191.2 264.466 190.6 265.06 190L258.609 190C257.694 191.306 257.837 193.077 258.949 194.22 263.371 198.875 274.7 209 287.973 209 301.246 209 312.565 198.875 317.058 194.22 318.121 193.048 318.232 191.297 317.326 190Z"/></g></svg>