<svg width="96" height="96" xmlns="http://www.w3.org/2000/svg" xmlns:xlink="http://www.w3.org/1999/xlink" xml:space="preserve" overflow="hidden"><g transform="translate(-675 -159)"><path d="M698 173 748 173 748 241 698 241 698 173ZM692 247 754 247 754 167 692 167 692 247Z"/><path d="M705 179 713 179 713 187 705 187Z"/><path d="M721 181 741 181 741 185 721 185Z"/><path d="M705 195 713 195 713 203 705 203Z"/><path d="M721 197 741 197 741 201 721 201Z"/><path d="M705 211 713 211 713 219 705 219Z"/><path d="M721 213 741 213 741 217 721 217Z"/><path d="M705 227 713 227 713 235 705 235Z"/><path d="M721 229 741 229 741 233 721 233Z"/></g></svg>