<svg width="96" height="96" xmlns="http://www.w3.org/2000/svg" xmlns:xlink="http://www.w3.org/1999/xlink" xml:space="preserve" overflow="hidden"><g transform="translate(-844 -523)"><path d="M929.444 539 864 539 864 529 854 529C849.584 529.005 846.005 532.584 846 537L846 595C846.005 599.416 849.584 602.995 854 603L920 603 920 613 930 613C934.416 612.995 937.995 609.416 938 605L938 547C937.837 542.432 934.012 538.856 929.444 539ZM852 537C852 535.895 852.895 535 854 535L858 535 858 587 854 587C853.325 587 852.653 587.085 852 587.253ZM852 595C852 593.895 852.895 593 854 593L864 593 864 545 929.444 545C930.692 544.883 931.813 545.761 932 547L932 597 854 597C852.895 597 852 596.105 852 595ZM932 605C932 606.105 931.105 607 930 607L926 607 926 603 932 603Z"/><path d="M926.5 550.5 869.5 550.5 869.5 591.5 926.5 591.5ZM888.712 588.5C886.974 586.757 886.224 584.261 886.712 581.849 887.281 579.484 887.774 578.393 890.727 576.297 892.395 575.028 893.985 573.659 895.487 572.197 897.783 569.951 900.255 567.893 902.879 566.042 909.521 561.658 921.627 562.208 923.501 562.323L923.501 569.36C919.508 566.044 913.107 564.86 906.666 566.58 901.396 567.988 897.114 571.08 894.921 575.059 893.422 577.603 893.053 580.657 893.901 583.485 894.535 585.449 895.719 587.189 897.312 588.5ZM882.765 553.5 886.365 553.5C885.386 555.6 884.293 557.558 882.601 558.169L872.5 561.817 872.5 558.5C872.794 558.537 873.091 558.556 873.387 558.556 875.607 558.472 877.759 557.766 879.597 556.517 880.855 555.747 881.935 554.719 882.765 553.5ZM872.5 565.007 883.617 560.991C886.81 559.837 888.304 556.514 889.617 553.583L889.655 553.5 893.5 553.5C893.34 553.878 893.181 554.26 893.019 554.648 891.527 558.242 889.836 562.315 886.942 563.448 881.355 565.631 875.566 568.517 872.5 570.1ZM888.035 566.241C892.118 564.641 894.068 559.941 895.79 555.799 896.12 554.999 896.443 554.232 896.772 553.499L904.672 553.499C902.196 554.416 900.219 555.659 899.33 557.352 897.555 560.732 892.058 566.097 887.982 569.128 885.958 570.633 884.72 571.421 883.524 572.184 882.404 572.897 881.346 573.571 879.835 574.722 876.113 577.895 873.542 582.208 872.521 586.992 872.521 586.997 872.517 587.001 872.512 587.001 872.507 587.001 872.503 586.997 872.503 586.992L872.503 573.492C877.551 570.807 882.735 568.386 888.035 566.241ZM881.65 577.109C883.061 576.035 884.021 575.423 885.133 574.715 886.316 573.961 887.658 573.106 889.769 571.537 893.516 568.75 899.783 562.937 901.983 558.747 903.815 555.259 915.865 553.982 923.5 553.965L923.5 559.315C920.849 559.158 908.527 558.715 901.226 563.537 898.462 565.477 895.86 567.639 893.445 570 892.037 571.371 890.549 572.658 888.99 573.854 885.417 576.389 884.532 578.082 883.79 581.154 883.199 583.666 883.635 586.31 885 588.5L875.275 588.5C876.031 584.084 878.281 580.062 881.65 577.109ZM896.765 582.592C896.169 580.543 896.452 578.338 897.547 576.506 899.322 573.286 903.02 570.659 907.439 569.479 914.156 567.685 920.97 569.585 923.5 573.894L923.5 581.286C921.789 584.565 918.077 587.286 913.546 588.5L905.709 588.5C904.906 588.5 904.104 588.445 903.309 588.335L902.936 588.283C899.749 587.157 897.558 585.136 896.765 582.592ZM878.68 553.5C878.467 553.665 878.246 553.819 878.018 553.962 875.111 555.762 873.24 555.63 872.5 555.462L872.5 553.5ZM920.734 588.5C921.727 587.84 922.653 587.084 923.5 586.244L923.5 588.5Z"/><path d="M912.621 586.742C915.515 586.067 918.013 584.253 919.552 581.711 920.465 580.132 920.688 578.247 920.171 576.498 918.863 572.306 913.534 570.172 908.039 571.64 905.146 572.315 902.647 574.128 901.108 576.67 900.195 578.249 899.971 580.134 900.489 581.883 901.518 585.183 905.033 587.205 909.162 587.205 910.33 587.202 911.493 587.046 912.621 586.742ZM903.353 580.99C903.081 580.021 903.219 578.983 903.735 578.118 904.889 576.302 906.714 575.015 908.813 574.538 909.665 574.31 910.542 574.193 911.424 574.192 914.25 574.192 916.692 575.42 917.307 577.392 917.579 578.361 917.44 579.399 916.924 580.263 915.77 582.079 913.945 583.366 911.847 583.844 908.044 584.861 904.152 583.553 903.353 580.99Z"/><path d="M915.4 580.521C915.878 579.683 915.972 578.679 915.657 577.767 914.909 575.649 912.029 574.531 909.098 575.221 907.505 575.524 906.111 576.481 905.257 577.86 904.78 578.698 904.687 579.701 905 580.613 905.6 582.313 907.562 583.364 909.824 583.364 910.408 583.365 910.991 583.297 911.56 583.164 913.154 582.861 914.548 581.902 915.4 580.521ZM912.767 579.084C912.311 579.705 911.628 580.12 910.867 580.24 909.253 580.621 907.98 580.052 907.826 579.614 907.814 579.581 907.782 579.49 907.888 579.297 908.344 578.676 909.027 578.26 909.788 578.141 910.133 578.059 910.487 578.017 910.842 578.016 911.931 578.016 912.71 578.43 912.829 578.767L912.829 578.767C912.841 578.8 912.874 578.891 912.768 579.084Z"/></g></svg>