<svg width="96" height="96" xmlns="http://www.w3.org/2000/svg" xmlns:xlink="http://www.w3.org/1999/xlink" xml:space="preserve" overflow="hidden"><g transform="translate(-485 -166)"><path d="M519 177 519 226.5 514.9 208C514.3 205.3 511.6 203.6 508.9 204.2 506.2 204.8 504.5 207.5 505.1 210.2L511.1 237.2C511.4 238.2 512 239.2 513 240L524 248.5 524 256 553 256 553 251C553 243.9 561 243.4 561 230 561 226.8 561 216.2 561 212 561 208.7 558.3 206 555 206 553.4 206 552 206.6 551 207.6 551 207.4 551 207.2 551 207 551 203.7 548.3 201 545 201 543.4 201 541.9 201.6 540.8 202.7 540.2 200 537.8 198 535 198 531.7 198 529 200.7 529 204L529 177C529 174.2 526.8 172 524 172 521.2 172 519 174.2 519 177Z"/></g></svg>